<svg id="Capa_1" enable-background="new 0 0 508.005 508.005" height="512" viewBox="0 0 508.005 508.005" width="512" xmlns="http://www.w3.org/2000/svg" xmlns:svg="http://www.w3.org/2000/svg"><defs id="defs1953"/><g id="g1948" transform="matrix(1.0000013,0,0,1.0000013,9.3350513e-5,3.5107136e-4)"><path d="m375.461 317.617c32.792-20.494 72.041-31.612 113.549-31.612.0 117.084-94.916 212-212 212-43.256.0-83.479-12.961-117.012-35.205-24.401-16.186-57.585-7.052-70.512 19.782-8.532 17.712-32.066 20.328-44.145 5.401-16.467-20.349-27.016-46.269-26.299-77.27 1.701-73.541 79.455-115.762 142.386-83.469 67.439 34.606 149.02 31.005 214.033-9.627zM400.66 165.015c31.04-41.98 42.65-94.99 33.06-145.41-1.13-5.96-6.63-10.06-12.67-9.56-41.7 3.43-78.77 23.27-104.7 53.04h-.01c-36.27-13.43-76.39-13.43-112.66.0h-.01c-25.93-29.77-63-49.61-104.7-53.04-6.04-.5-11.54 3.6-12.67 9.56-9.59 50.42 2.02 103.43 33.06 145.41-5.93 17.06-19.31 61.151-19.31 110.79 33.52-14.09 73.65-5.31 97.96 24.2.0 27.57 22.43 50 50 50h24c27.57.0 50-22.43 50-50 24.31-29.51 64.44-38.29 97.96-24.2.0-49.122-13.38-93.73-19.31-110.79z" fill="#ffbe90" id="path1940"/><path d="m375.46 317.615c-7.2 4.5-14.6 8.55-22.17 12.13 19.71 39.43 56.79 66.99 99.23 75.2 23.03-33.91 36.49-74.86 36.49-118.94-41.51.0-80.76 11.12-113.55 31.61zm-53.45-17.61c0 27.57-22.43 50-50 50h-24c-27.57.0-50-22.43-50-50 0-9.73 5.29-19 11.1-26.25 7.54-9.39 19-14.75 31.03-14.75h39.74c12.03.0 23.49 5.36 31.03 14.75 5.81 7.25 11.1 16.52 11.1 26.25zm92.47-82.15c-43.94-4.9-92.47 25.37-92.47 66.76v15.39c24.31-29.51 64.44-38.29 97.96-24.2-.23-19.75-2.11-39.11-5.49-57.95zm-308.94.0c-3.38 18.84-5.26 38.2-5.49 57.95 33.52-14.09 73.65-5.31 97.96 24.2v-15.39c0-41.39-48.53-71.66-92.47-66.76z" fill="#fff" id="path1942"/><path d="m275.794 337.809-15.783 12.196-15.783-12.196c-3.921-3.03-6.217-7.705-6.217-12.661v-9.143c0-5.523 4.477-10 10-10h24c5.523.0 10 4.477 10 10v9.143c-.001 4.956-2.297 9.631-6.217 12.661z" fill="#8aa8bd" id="path1944"/><path d="m489.006 350.546c0 5.523-4.478 10.001-10.001 10.001-5.523.0-10.001-4.478-10.001-10.001.0-5.523 4.478-10.001 10.001-10.001 5.524.0 10.001 4.478 10.001 10.001zm10.004-64.541c0 7.274-.364 14.444-1.059 21.497-1.281 13.279-21.162 11.362-19.881-1.917l-.046.045c.307-3.118.567-6.245.727-9.388-35.543 1.652-69.233 11.889-97.994 29.854-4.487 2.804-9.059 5.443-13.705 7.918 17.791 29.567 47.056 51.242 80.676 59.623 1.5-2.388 4.472-7.003 4.472-7.003 6.652-11.551 23.784-1.685 17.132 9.866-25.354 49.021-95.806 111.504-192.302 111.504h-.05c-43.79.0-86.16-12.75-122.51-36.87-6.27-4.16-13.53-6.36-21-6.37-15 .03-28.41 8.52-34.97 22.16-3.08 6.42-13.167 20.78-32.99 20.78-15.081.0-24.442-9.089-27.94-13.431-38.238-47.463-39.629-119.059 5.12-159.31 49.804-44.799 104.514-26.476 123.3-16.62 9.842 5.163 20.158 9.418 30.774 12.807-4.906-8.047-7.977-17.331-8.615-27.269-21.001-23.294-55.214-31.245-84.223-18.856-6.141 2.623-13.948-1.506-13.875-9.336.346-37.261 6.567-73.899 18.195-108.996C78.068 123.564 66.505 70.133 76.473 17.731 78.562 6.748 88.57-.873 99.792.08c41.358 3.401 79.147 21.951 106.893 51.38 34.636-11.272 72.013-11.272 106.651.0 27.747-29.43 65.536-47.98 106.894-51.381 11.194-.919 21.228 6.669 23.318 17.654 9.967 52.402-1.595 105.833-31.773 148.962 11.628 35.098 17.687 71.858 18.194 108.996.396 5.443-6.015 12.621-13.875 9.336-29.148-12.184-63.222-4.439-84.223 18.857-.63 9.809-3.63 18.982-8.426 26.957 16.316-5.25 32.008-12.517 46.715-21.706 34.69-21.67 75.78-33.13 118.85-33.13 5.049.0 10 3.968 10 10zm-271 39.144v-9.144c0-11.028 8.972-20 20-20h24c11.028.0 20 8.972 20 20v9.144c0 3.733-.833 7.396-2.355 10.743 13.23-6.532 22.355-20.161 22.355-35.886.0-7.349-4.843-14.928-8.904-19.991-5.613-6.996-14.079-11.009-23.228-11.009h-39.736c-9.148.0-17.615 4.013-23.227 11.009-4.063 5.063-8.905 12.643-8.905 19.991.0 15.725 9.125 29.354 22.355 35.886-1.522-3.347-2.355-7.01-2.355-10.743zm20 2.637c0 1.845.871 3.619 2.331 4.747l9.669 7.472 9.669-7.472c1.46-1.128 2.331-2.902 2.331-4.747v-11.781h-24zM409.521 261.9c-.609-11.609-1.814-23.138-3.59-34.56-21.791-1.141-65.146 12.794-73.136 49.112 30.538-21.415 62.258-18.03 76.726-14.552zm-222.295 14.552c-5.442-25.576-34.861-49.118-73.136-49.111-1.777 11.421-2.981 22.95-3.59 34.559 24.833-5.992 54.059-1.83 76.726 14.552zm17.246-12.5c9.289-9.544 22.037-14.947 35.67-14.947h39.736c13.634.0 26.381 5.403 35.67 14.947 13.817-37.947 55.609-56.044 86.661-56.571-1.795-8.245-3.902-16.419-6.311-24.515-7.114 1.623-16.017-7.861-9.175-16.253C419.9 125.916 433.751 73.26 423.9 21.472c-.171-.898-1.059-1.546-2.03-1.459-49.178 4.044-92.64 32.435-116.263 75.943-2.635 4.854-8.705 6.65-13.56 4.017-4.854-2.635-6.652-8.706-4.017-13.56 3.455-6.364 7.29-12.437 11.458-18.209-25.851-6.935-53.107-6.935-78.956.0 4.168 5.772 8.003 11.846 11.458 18.209 2.635 4.854.837 10.925-4.017 13.56-4.853 2.637-10.924.838-13.56-4.017C190.79 52.447 147.328 24.057 98.151 20.013 97.184 19.93 96.29 20.575 96.12 21.471c-9.851 51.789 3.828 104.586 37.176 145.142 5.23 6.36 1.069 17.199-9.174 16.254-2.41 8.096-4.517 16.271-6.312 24.516 43.071 1.009 77.426 28.59 86.662 56.569zm144.461 78.72C320.789 354.63 243.72 379.973 156.861 336.14 151.048 333.207 104.365 309.263 56.248 349.668 28.826 372.695 13.526 434.166 53.1 481.672c1.519 1.823 5.601 6.033 12.41 6.033 9.93.0 14.202-7.856 14.958-9.432 9.921-20.63 30.212-33.463 52.962-33.509 11.476.015 22.552 3.371 32.098 9.705 33.063 21.938 71.603 33.535 111.452 33.535 39.901.0 110.998-14.871 158.574-76.999-36.255-11.037-67.492-35.602-86.621-68.333zM330.1 136.155l27.763 19.513c3.697 2.886 10.568 2.596 13.931-2.432 3.071-4.59 2.087-10.756-2.431-13.932L353.63 128.246c21.899-15.946 39.128-37.193 50.276-62.163 2.251-5.043-.012-10.957-5.055-13.208-5.043-2.254-10.957.011-13.208 5.054-11.52 25.803-30.473 47.085-54.875 61.432-5.596 3.289-7.047 11.951-.668 16.794zm-38.43 84.906c5.885.669 10.451-3.581 11.234-8.591 2.042-13.062 17.817-20.239 28.526-10.283 4.045 3.76 10.387 3.484 14.13-.576 3.743-4.062 3.46-10.361-.577-14.131-20.199-18.862-56.586-10.152-61.904 22.348-.891 5.449 2.706 10.564 8.591 11.233zm-74.553-8.591c.783 5.01 5.349 9.259 11.234 8.591 5.885-.669 9.482-5.784 8.59-11.233-5.318-32.5-41.705-41.209-61.904-22.348-4.037 3.77-4.319 10.069-.577 14.131 3.743 4.061 10.086 4.336 14.13.576 10.711-9.956 26.485-2.778 28.527 10.283zm-27.863-93.109c-24.403-14.347-43.355-35.629-54.875-61.432-2.251-5.043-8.165-7.308-13.208-5.054-5.043 2.251-7.306 8.165-5.055 13.208 11.148 24.97 28.377 46.217 50.276 62.163l-15.733 11.058c-4.519 3.176-5.502 9.341-2.431 13.932 3.363 5.028 10.234 5.318 13.931 2.432l27.763-19.513c6.379-4.843 4.927-13.505-.668-16.794z" id="path1946"/></g></svg>